{
	"asset":{
		"generator":"Khronos glTF Blender I/O v4.2.60",
		"version":"2.0"
	},
	"scene":0,
	"scenes":[
		{
			"name":"Scene",
			"nodes":[
				0,
				5
			]
		}
	],
	"nodes":[
		{
			"mesh":0,
			"name":"Car"
		},
		{
			"mesh":1,
			"name":"Object010_Material #4_0"
		},
		{
			"children":[
				1
			],
			"name":"Object010",
			"scale":[
				0.39369997382164,
				0.3937000334262848,
				0.3937000334262848
			],
			"translation":[
				0,
				29.2594051361084,
				-3.156796455383301
			]
		},
		{
			"children":[
				2
			],
			"name":"RootNode"
		},
		{
			"children":[
				3
			],
			"name":"sportscar_low.FBX",
			"rotation":[
				0.70710688829422,
				0,
				0,
				0.7071066498756409
			]
		},
		{
			"children":[
				4
			],
			"name":"Sketchfab_model",
			"rotation":[
				-0.70710688829422,
				0,
				0,
				0.7071066498756409
			]
		}
	],
	"materials":[
		{
			"doubleSided":true,
			"name":"Material",
			"pbrMetallicRoughness":{
				"baseColorFactor":[
					0.07562084496021271,
					0.04512708634138107,
					0.8001416921615601,
					1
				],
				"metallicFactor":0,
				"roughnessFactor":0.5
			}
		},
		{
			"doubleSided":true,
			"name":"Material_4",
			"normalTexture":{
				"index":0
			},
			"occlusionTexture":{
				"index":1
			},
			"pbrMetallicRoughness":{
				"baseColorFactor":[
					0.5017149448394775,
					0.5017149448394775,
					0.5017149448394775,
					1
				],
				"baseColorTexture":{
					"index":2
				},
				"metallicFactor":0,
				"metallicRoughnessTexture":{
					"index":1
				}
			}
		}
	],
	"meshes":[
		{
			"name":"Car",
			"primitives":[
				{
					"attributes":{
						"POSITION":0,
						"NORMAL":1,
						"TEXCOORD_0":2
					},
					"indices":3,
					"material":0
				}
			]
		},
		{
			"name":"Object010_Material #4_0",
			"primitives":[
				{
					"attributes":{
						"POSITION":4,
						"NORMAL":5,
						"TEXCOORD_0":6
					},
					"indices":7,
					"material":1
				}
			]
		}
	],
	"textures":[
		{
			"sampler":0,
			"source":0
		},
		{
			"sampler":0,
			"source":1
		},
		{
			"sampler":0,
			"source":2
		}
	],
	"images":[
		{
			"mimeType":"image/png",
			"name":"Material_4_normal.png",
			"uri":"../../Documents/Programming/react-3d-model/src/assets/car/textures/Material_4_normal.png"
		},
		{
			"mimeType":"image/png",
			"name":"Material_4_metallicRoughness.png",
			"uri":"../../Documents/Programming/react-3d-model/src/assets/car/textures/Material_4_metallicRoughness.png"
		},
		{
			"mimeType":"image/png",
			"name":"Material_4_baseColor.png",
			"uri":"../../Documents/Programming/react-3d-model/src/assets/car/textures/Material_4_baseColor.png"
		}
	],
	"accessors":[
		{
			"bufferView":0,
			"componentType":5126,
			"count":90,
			"max":[
				1,
				1,
				1
			],
			"min":[
				-1,
				-1,
				-1
			],
			"type":"VEC3"
		},
		{
			"bufferView":1,
			"componentType":5126,
			"count":90,
			"type":"VEC3"
		},
		{
			"bufferView":2,
			"componentType":5126,
			"count":90,
			"type":"VEC2"
		},
		{
			"bufferView":3,
			"componentType":5123,
			"count":132,
			"type":"SCALAR"
		},
		{
			"bufferView":4,
			"componentType":5126,
			"count":4850,
			"max":[
				100.3594970703125,
				59.87322998046875,
				231.64564514160156
			],
			"min":[
				-100.3594970703125,
				-73.12974548339844,
				-219.15054321289062
			],
			"type":"VEC3"
		},
		{
			"bufferView":5,
			"componentType":5126,
			"count":4850,
			"type":"VEC3"
		},
		{
			"bufferView":6,
			"componentType":5126,
			"count":4850,
			"type":"VEC2"
		},
		{
			"bufferView":7,
			"componentType":5123,
			"count":17190,
			"type":"SCALAR"
		}
	],
	"bufferViews":[
		{
			"buffer":0,
			"byteLength":1080,
			"byteOffset":0,
			"target":34962
		},
		{
			"buffer":0,
			"byteLength":1080,
			"byteOffset":1080,
			"target":34962
		},
		{
			"buffer":0,
			"byteLength":720,
			"byteOffset":2160,
			"target":34962
		},
		{
			"buffer":0,
			"byteLength":264,
			"byteOffset":2880,
			"target":34963
		},
		{
			"buffer":0,
			"byteLength":58200,
			"byteOffset":3144,
			"target":34962
		},
		{
			"buffer":0,
			"byteLength":58200,
			"byteOffset":61344,
			"target":34962
		},
		{
			"buffer":0,
			"byteLength":38800,
			"byteOffset":119544,
			"target":34962
		},
		{
			"buffer":0,
			"byteLength":34380,
			"byteOffset":158344,
			"target":34963
		}
	],
	"samplers":[
		{
			"magFilter":9729,
			"minFilter":9987
		}
	],
	"buffers":[
		{
			"byteLength":192724,
			"uri":"car.bin"
		}
	]
}
